<?xml version="1.0" encoding="iso-8859-1"?>
<!-- Uploaded to: SVG Repo, www.svgrepo.com, Generator: SVG Repo Mixer Tools -->
<!DOCTYPE svg PUBLIC "-//W3C//DTD SVG 1.1//EN" "http://www.w3.org/Graphics/SVG/1.1/DTD/svg11.dtd">
<svg fill="#000000" version="1.1" id="Capa_1" xmlns="http://www.w3.org/2000/svg" xmlns:xlink="http://www.w3.org/1999/xlink" 
	 width="800px" height="800px" viewBox="0 0 436.519 436.519"
	 xml:space="preserve">
<g>
	<g>
		<path d="M101.497,112.512l26.825-21.922V67.916h-26.825V112.512z"/>
		<path d="M428.956,175.418l-49.838-37.163c-1.9-2.286-4.315-4.086-7.061-5.263L220.289,19.834
			c-0.473-0.344-0.939-0.632-0.985-0.632c-0.611-0.4-1.235-0.778-1.815-1.061c-0.493-0.241-0.989-0.452-1.683-0.714
			c-0.606-0.236-1.22-0.446-1.758-0.593c-0.559-0.149-1.133-0.262-1.601-0.344c-0.645-0.113-1.289-0.214-2.025-0.268
			c-0.339-0.021-0.678-0.031-1.011-0.031l-0.661,0.005c-0.63,0.01-1.247,0.037-2.011,0.128c-0.509,0.062-1.01,0.16-1.365,0.242
			c-0.692,0.139-1.385,0.302-2.042,0.514c-0.518,0.168-1.016,0.368-1.593,0.614c-0.611,0.257-1.218,0.539-1.853,0.892
			c-0.502,0.284-0.995,0.615-1.173,0.754l-0.935,0.59l-43.158,35.273c-2.076-8.139-9.467-14.17-18.239-14.17h-42.95
			c-10.374,0-18.814,8.44-18.814,18.814v60.743L6.913,175.935c-3.893,3.184-6.312,7.688-6.816,12.686
			c-0.506,5,0.974,9.897,4.145,13.777c3.585,4.399,8.895,6.918,14.577,6.918c4.329,0,8.552-1.509,11.9-4.246l18.686-15.27v161.724
			c0,10.372,8.441,18.814,18.813,18.814c10.376,0,18.814-8.442,18.814-18.814V159.046L209.656,58.832l136.18,101.541v191.155
			c0,10.378,8.442,18.814,18.814,18.814c10.378,0,18.814-8.437,18.814-18.814V188.434l23.013,17.158
			c3.276,2.441,7.161,3.724,11.233,3.724c5.927,0,11.56-2.832,15.093-7.566C438.993,193.432,437.276,181.624,428.956,175.418z
			 M424.179,195.319c-1.581,2.123-4.012,3.247-6.469,3.247c-1.675,0-3.363-0.522-4.812-1.596l-40.189-29.963v184.522
			c0,4.456-3.612,8.063-8.063,8.063s-8.063-3.607-8.063-8.063V154.982L209.349,45.202L76.282,153.951v197.578
			c0,4.456-3.612,8.063-8.063,8.063s-8.063-3.607-8.063-8.063V167.13l-36.233,29.614c-1.496,1.226-3.302,1.816-5.098,1.816
			c-2.338,0-4.654-1.01-6.247-2.96c-2.816-3.452-2.309-8.528,1.142-11.35l71.657-58.565V59.853c0-4.454,3.614-8.063,8.063-8.063
			h42.951c4.451,0,8.063,3.61,8.063,8.063v17.557l59.565-48.678c0.16-0.137,0.344-0.229,0.514-0.339
			c0.221-0.157,0.441-0.317,0.672-0.446c0.254-0.142,0.517-0.25,0.779-0.357c0.215-0.089,0.425-0.192,0.646-0.262
			c0.287-0.092,0.57-0.149,0.861-0.21c0.215-0.047,0.43-0.097,0.651-0.124c0.289-0.031,0.574-0.036,0.863-0.042
			c0.231,0,0.462-0.01,0.696,0c0.278,0.021,0.551,0.068,0.821,0.118c0.236,0.037,0.473,0.073,0.704,0.139
			c0.281,0.076,0.548,0.183,0.816,0.291c0.215,0.084,0.43,0.155,0.64,0.262c0.281,0.135,0.543,0.312,0.8,0.478
			c0.147,0.098,0.308,0.163,0.452,0.271l152.937,114.028c1.911,0.554,3.527,1.769,4.578,3.407l51.087,38.089
			C426.106,186.697,426.839,191.749,424.179,195.319z"/>
		<path d="M214.042,203.479h46.449V155.09h-98.182l-42.963,32.807v15.588h46.082h48.615V203.479z"/>
		<rect x="262.596" y="277.36" width="13.402" height="80.195"/>
		<path d="M214.252,227.123c-0.651-0.075-2.037-0.075-2.638-0.011l-29.302,24.746l7.73,9.159l19.409-16.394
			c2-1.686,4.919-1.691,6.919-0.021l6.597,5.565c1.208,1.023,1.901,2.529,1.901,4.108l0.005,103.279h19.129V253.427
			c-0.109-0.482-0.136-0.854-0.104-1.265L214.252,227.123z"/>
		<path d="M277.116,255.857H265.5v-2.431c0-0.351-0.011-0.703-0.026-1.055c0.193-6.206-2.451-12.21-7.219-16.226l-13.218-11.166
			h20.824c8.893,0,16.127-7.236,16.127-16.126v-59.146c0-8.89-7.234-16.126-16.127-16.126H160.492c-3.514,0-6.992,1.176-9.782,3.305
			l-46.526,35.523c-3.966,3.031-6.341,7.826-6.341,12.813v23.625c0,8.889,7.234,16.126,16.126,16.126h35.413l0.139,30.877h-4.339
			c-11.228,0.011-20.364,9.159-20.364,20.383v14.216c0,1.438,0.149,2.867,0.461,4.262c-0.312,1.397-0.461,2.825-0.461,4.264v14.216
			c0,1.438,0.149,2.865,0.461,4.262c-0.312,1.396-0.461,2.825-0.461,4.262v14.205c0,1.438,0.149,2.861,0.461,4.264
			c-0.312,1.396-0.466,2.823-0.466,4.262v14.216c0,11.229,9.136,20.378,20.388,20.389h4.1v25.15c0,8.893,7.236,16.127,16.126,16.127
			h47.798c8.893,0,16.126-7.234,16.126-16.127v-25.15h15.76c2.87,0,5.653-0.598,8.184-1.712c2.529,1.114,5.308,1.712,8.183,1.712
			h15.645c11.239,0,20.378-9.149,20.378-20.389v-82.421c0-5.443-2.12-10.557-5.963-14.41
			C287.688,257.979,282.565,255.857,277.116,255.857z M286.749,358.667c0,5.318-4.325,9.638-9.627,9.638h-15.645
			c-3.469,0-6.487-1.862-8.183-4.613c-1.69,2.751-4.719,4.613-8.184,4.613h-21.344c-1.864,0-3.633-0.54-5.165-1.517v37.418
			c0,2.972-2.403,5.376-5.377,5.376h-47.798c-2.972,0-5.375-2.404-5.375-5.376V369.34c0-0.362,0.108-0.692,0.173-1.035h-15.023
			h-0.005c-5.313-0.005-9.633-4.33-9.633-9.638v-14.21c0-1.543,0.396-2.977,1.042-4.262c-0.646-1.293-1.037-2.729-1.037-4.264
			v-14.209c0-1.539,0.391-2.978,1.037-4.264c-0.646-1.29-1.037-2.724-1.037-4.262v-14.21c0-1.543,0.391-2.977,1.037-4.264
			c-0.646-1.291-1.037-2.729-1.037-4.262v-14.221c0-5.307,4.32-9.633,9.628-9.633h15.125l-0.249-52.379h-46.108
			c-2.974,0-5.375-2.406-5.375-5.375v-23.625c0-1.678,0.785-3.251,2.118-4.273l46.524-35.52c0.934-0.717,2.081-1.103,3.256-1.103
			h105.374c2.977,0,5.376,2.407,5.376,5.375v59.141c0,2.968-2.399,5.375-5.376,5.375h-46.449v3.124c0,0.066-0.042,0.123-0.042,0.194
			c0.499,0.273,0.827,0.535,1.032,0.703l30.919,26.105c2.378,2.005,3.628,5.046,3.376,8.115c0.036,0.32,0.052,0.642,0.052,0.956
			v15.938c1.811-1.774,4.179-2.756,6.724-2.756h15.644c2.573,0,4.992,1.003,6.814,2.829c1.815,1.816,2.818,4.242,2.818,6.809
			V358.667z"/>
		<path d="M194.299,271.112c-0.124,0.062-0.231,0.168-0.354,0.226c0.069,0.122,0.103,0.257,0.16,0.384
			c0.266,0.494,0.486,1.008,0.662,1.543c0.076,0.221,0.144,0.431,0.205,0.662c0.183,0.745,0.317,1.512,0.317,2.319v14.216
			c0,0.714-0.097,1.407-0.241,2.09c-0.055,0.219-0.137,0.419-0.205,0.64c-0.128,0.451-0.275,0.883-0.466,1.303
			c-0.04,0.073-0.051,0.156-0.087,0.229c0.036,0.064,0.047,0.152,0.087,0.221c0.191,0.42,0.338,0.861,0.472,1.313
			c0.062,0.214,0.145,0.419,0.199,0.634c0.144,0.678,0.241,1.371,0.241,2.096v14.21c0,0.72-0.097,1.413-0.241,2.083
			c-0.055,0.231-0.142,0.447-0.21,0.673c-0.128,0.431-0.27,0.856-0.451,1.249c-0.04,0.084-0.056,0.179-0.092,0.252
			c0.042,0.083,0.052,0.169,0.092,0.252c0.181,0.399,0.322,0.82,0.451,1.249c0.069,0.221,0.156,0.441,0.21,0.673
			c0.149,0.672,0.241,1.365,0.241,2.088v14.216c0,0.703-0.097,1.396-0.241,2.079c-0.05,0.211-0.124,0.409-0.184,0.608
			c-0.128,0.452-0.287,0.903-0.478,1.335c-0.04,0.072-0.056,0.161-0.092,0.241c0.042,0.083,0.052,0.174,0.098,0.252
			c0.181,0.408,0.322,0.823,0.445,1.249c0.069,0.226,0.156,0.441,0.21,0.672c0.144,0.671,0.241,1.364,0.241,2.089v14.216
			c0,5.312-4.328,9.637-9.638,9.637h-14.545v1.041c0,0.618-0.108,1.218-0.302,1.773v27.718h37.048V260.047l-11.725,9.899
			C195.561,270.424,194.944,270.787,194.299,271.112z M197.1,388.08h-15.546v-9.024h4.097c4.242,0,8.182-1.301,11.45-3.527V388.08z"
			/>
		<polygon points="184.537,312.079 184.537,300.099 146.319,300.099 146.319,312.084 165.477,312.084 		"/>
		<polygon points="184.537,277.354 165.729,277.354 146.319,277.354 146.319,289.348 184.537,289.348 		"/>
		<polygon points="184.537,345.57 165.379,345.57 146.314,345.57 146.314,357.561 165.724,357.561 165.729,357.556 184.537,357.556 
					"/>
		<path d="M208.667,214.891v-0.662h-37.837l0.249,52.379h9.609l-1.326-1.57l-5.984-7.082c-1.242-1.47-2.005-3.243-2.215-5.121
			c-0.068-0.631-0.078-1.262-0.026-1.901c0.215-2.573,1.42-4.897,3.391-6.562L208.667,214.891z"/>
		<polygon points="184.537,334.819 184.537,322.83 165.477,322.835 146.319,322.835 146.319,334.819 165.519,334.819 		"/>
	</g>
</g>
</svg>